<svg width="512" height="512" viewBox="0 0 512 512" fill="none" xmlns="http://www.w3.org/2000/svg">
  <rect width="512" height="512" rx="128" fill="#E30613"/>
  <path d="M160 120H280C346.274 120 400 173.726 400 240C400 306.274 346.274 360 280 360H220V420H160V120ZM220 300H280C313.137 300 340 273.137 340 240C340 206.863 313.137 180 280 180H220V300Z" fill="white"/>
  <path d="M180 140H280C335.228 140 380 184.772 380 240C380 295.228 335.228 340 280 340H220V400H180V140Z" fill="white" fill-opacity="0.1"/>
</svg>
